<svg width="32" height="32" viewBox="0 0 32 32" fill="none" xmlns="http://www.w3.org/2000/svg">
<path d="M15.0092 12.455C15.0092 13.313 14.8488 14.0627 14.5282 14.704C14.2075 15.3453 13.7742 15.887 13.2282 16.329C12.6822 16.771 12.0712 17.1263 11.3952 17.395L16.1142 25H11.2912L7.39116 18.11H6.18216V25H1.91816V6.982H7.58616C10.0388 6.982 11.8892 7.42833 13.1372 8.321C14.3852 9.21367 15.0092 10.5917 15.0092 12.455ZM10.6152 12.455C10.6152 11.5883 10.3595 10.96 9.84816 10.57C9.34549 10.1713 8.59582 9.972 7.59916 9.972H6.18216V15.185H7.76816C8.69549 15.185 9.40182 14.9683 9.88716 14.535C10.3725 14.1017 10.6152 13.4083 10.6152 12.455ZM30.131 6.982L31.145 25H27.427L27.206 17.291C27.1887 16.5717 27.18 15.9303 27.18 15.367C27.1887 14.8037 27.2017 14.275 27.219 13.781C27.2363 13.2783 27.2623 12.7757 27.297 12.273C27.3403 11.7617 27.3837 11.207 27.427 10.609L25.399 21.932H22.175L19.991 10.609C20.043 11.181 20.0863 11.7227 20.121 12.234C20.1643 12.7367 20.1947 13.2437 20.212 13.755C20.2293 14.2663 20.2423 14.8167 20.251 15.406C20.2597 15.9867 20.2553 16.6367 20.238 17.356L20.108 25H16.455L17.469 6.982H21.85L23.852 18.63L25.75 6.982H30.131Z" fill="#8C52FF"/>
</svg>
