<svg width="32" height="32" viewBox="0 0 32 32" fill="none" xmlns="http://www.w3.org/2000/svg">
<path d="M14.984 13.28C14.984 13.808 14.8853 14.2693 14.688 14.664C14.4907 15.0587 14.224 15.392 13.888 15.664C13.552 15.936 13.176 16.1547 12.76 16.32L15.664 21H12.696L10.296 16.76H9.552V21H6.928V9.912H10.416C11.9253 9.912 13.064 10.1867 13.832 10.736C14.6 11.2853 14.984 12.1333 14.984 13.28ZM12.28 13.28C12.28 12.7467 12.1227 12.36 11.808 12.12C11.4987 11.8747 11.0373 11.752 10.424 11.752H9.552V14.96H10.528C11.0987 14.96 11.5333 14.8267 11.832 14.56C12.1307 14.2933 12.28 13.8667 12.28 13.28ZM24.2898 9.912L24.9138 21H22.6258L22.4898 16.256C22.4791 15.8133 22.4738 15.4187 22.4738 15.072C22.4791 14.7253 22.4871 14.4 22.4978 14.096C22.5084 13.7867 22.5244 13.4773 22.5458 13.168C22.5724 12.8533 22.5991 12.512 22.6258 12.144L21.3778 19.112H19.3938L18.0498 12.144C18.0818 12.496 18.1084 12.8293 18.1298 13.144C18.1564 13.4533 18.1751 13.7653 18.1858 14.08C18.1964 14.3947 18.2044 14.7333 18.2098 15.096C18.2151 15.4533 18.2124 15.8533 18.2018 16.296L18.1218 21H15.8738L16.4978 9.912H19.1938L20.4258 17.08L21.5938 9.912H24.2898Z" fill="#8C52FF"/>
</svg>
