<svg width="58" height="58" viewBox="0 0 58 58" fill="none" xmlns="http://www.w3.org/2000/svg">
<path d="M27.1708 21.84C27.1708 23.424 26.8748 24.808 26.2828 25.992C25.6908 27.176 24.8908 28.176 23.8828 28.992C22.8748 29.808 21.7468 30.464 20.4988 30.96L29.2108 45H20.3068L13.1068 32.28H10.8748V45H3.00275V11.736H13.4668C17.9948 11.736 21.4108 12.56 23.7148 14.208C26.0188 15.856 27.1708 18.4 27.1708 21.84ZM19.0588 21.84C19.0588 20.24 18.5868 19.08 17.6428 18.36C16.7148 17.624 15.3308 17.256 13.4908 17.256H10.8748V26.88H13.8028C15.5148 26.88 16.8188 26.48 17.7148 25.68C18.6108 24.88 19.0588 23.6 19.0588 21.84ZM55.088 11.736L56.96 45H50.096L49.688 30.768C49.656 29.44 49.64 28.256 49.64 27.216C49.656 26.176 49.68 25.2 49.712 24.288C49.744 23.36 49.792 22.432 49.856 21.504C49.936 20.56 50.016 19.536 50.096 18.432L46.352 39.336H40.4L36.368 18.432C36.464 19.488 36.544 20.488 36.608 21.432C36.688 22.36 36.744 23.296 36.776 24.24C36.808 25.184 36.832 26.2 36.848 27.288C36.864 28.36 36.856 29.56 36.824 30.888L36.584 45H29.84L31.712 11.736H39.8L43.496 33.24L47 11.736H55.088Z" fill="#8C52FF"/>
</svg>
