<svg width="256" height="38" viewBox="0 0 256 38" fill="none" xmlns="http://www.w3.org/2000/svg">
<path d="M11.064 24.28H7.992V37H0.119995V3.736H11.016C15.56 3.736 18.968 4.568 21.24 6.23199C23.544 7.89599 24.696 10.44 24.696 13.864C24.696 16.008 24.184 17.8 23.16 19.24C22.136 20.648 20.52 21.848 18.312 22.84L26.76 37H17.88L11.064 24.28ZM7.992 18.856H11.304C13.064 18.856 14.376 18.456 15.24 17.656C16.136 16.856 16.584 15.592 16.584 13.864C16.584 12.264 16.104 11.096 15.144 10.36C14.216 9.624 12.776 9.256 10.824 9.256H7.992V18.856Z" fill="#8C52FF"/>
<path d="M49.3882 29.608C49.3882 30.568 49.5162 31.272 49.7722 31.72C50.0602 32.168 50.5082 32.504 51.1162 32.728L49.5322 37.672C47.9642 37.544 46.6842 37.208 45.6922 36.664C44.7002 36.088 43.9322 35.192 43.3882 33.976C41.7242 36.536 39.1642 37.816 35.7082 37.816C33.1802 37.816 31.1642 37.08 29.6602 35.608C28.1562 34.136 27.4042 32.216 27.4042 29.848C27.4042 27.064 28.4282 24.936 30.4762 23.464C32.5242 21.992 35.4842 21.256 39.3562 21.256H41.9482V20.152C41.9482 18.648 41.6282 17.624 40.9882 17.08C40.3482 16.504 39.2282 16.216 37.6282 16.216C36.7962 16.216 35.7882 16.344 34.6042 16.6C33.4202 16.824 32.2042 17.144 30.9562 17.56L29.2282 12.568C30.8282 11.96 32.4602 11.496 34.1242 11.176C35.8202 10.856 37.3882 10.696 38.8282 10.696C42.4762 10.696 45.1482 11.448 46.8442 12.952C48.5402 14.456 49.3882 16.712 49.3882 19.72V29.608ZM37.9162 32.392C39.6442 32.392 40.9882 31.576 41.9482 29.944V25.432H40.0762C38.3482 25.432 37.0522 25.736 36.1882 26.344C35.3562 26.952 34.9402 27.896 34.9402 29.176C34.9402 30.2 35.1962 31 35.7082 31.576C36.2522 32.12 36.9882 32.392 37.9162 32.392Z" fill="#141414"/>
<path d="M67.0931 6.184C66.0051 6.184 65.2211 6.43999 64.7411 6.95199C64.2611 7.46399 64.0211 8.328 64.0211 9.54399V11.512H70.0211L69.2051 16.792H64.0211V37H56.4371V16.792H52.5971V11.512H56.4371V9.256C56.4371 6.696 57.2691 4.61599 58.9331 3.016C60.6291 1.38399 63.0451 0.567993 66.1811 0.567993C68.7091 0.567993 71.0291 1.11199 73.1411 2.2L71.0771 7.14399C69.7971 6.50399 68.4691 6.184 67.0931 6.184Z" fill="#141414"/>
<path d="M91.6226 29.608C91.6226 30.568 91.7506 31.272 92.0066 31.72C92.2946 32.168 92.7426 32.504 93.3506 32.728L91.7666 37.672C90.1986 37.544 88.9186 37.208 87.9266 36.664C86.9346 36.088 86.1666 35.192 85.6226 33.976C83.9586 36.536 81.3986 37.816 77.9426 37.816C75.4146 37.816 73.3986 37.08 71.8946 35.608C70.3906 34.136 69.6386 32.216 69.6386 29.848C69.6386 27.064 70.6626 24.936 72.7106 23.464C74.7586 21.992 77.7186 21.256 81.5906 21.256H84.1826V20.152C84.1826 18.648 83.8626 17.624 83.2226 17.08C82.5826 16.504 81.4626 16.216 79.8626 16.216C79.0306 16.216 78.0226 16.344 76.8386 16.6C75.6546 16.824 74.4386 17.144 73.1906 17.56L71.4626 12.568C73.0626 11.96 74.6946 11.496 76.3586 11.176C78.0546 10.856 79.6226 10.696 81.0626 10.696C84.7106 10.696 87.3826 11.448 89.0786 12.952C90.7746 14.456 91.6226 16.712 91.6226 19.72V29.608ZM80.1506 32.392C81.8786 32.392 83.2226 31.576 84.1826 29.944V25.432H82.3106C80.5826 25.432 79.2866 25.736 78.4226 26.344C77.5906 26.952 77.1746 27.896 77.1746 29.176C77.1746 30.2 77.4306 31 77.9426 31.576C78.4866 32.12 79.2226 32.392 80.1506 32.392Z" fill="#141414"/>
<path d="M119.887 23.752C119.887 24.808 119.839 25.72 119.743 26.488H103.951C104.207 28.632 104.815 30.136 105.775 31C106.735 31.864 108.063 32.296 109.759 32.296C110.783 32.296 111.775 32.12 112.735 31.768C113.695 31.384 114.735 30.808 115.855 30.04L118.975 34.264C115.999 36.632 112.687 37.816 109.039 37.816C104.911 37.816 101.743 36.6 99.5355 34.168C97.3275 31.736 96.2235 28.472 96.2235 24.376C96.2235 21.784 96.6875 19.464 97.6155 17.416C98.5435 15.336 99.9035 13.704 101.695 12.52C103.487 11.304 105.631 10.696 108.127 10.696C111.807 10.696 114.687 11.848 116.767 14.152C118.847 16.456 119.887 19.656 119.887 23.752ZM112.447 21.592C112.383 17.688 111.007 15.736 108.319 15.736C107.007 15.736 105.983 16.216 105.247 17.176C104.543 18.136 104.111 19.72 103.951 21.928H112.447V21.592Z" fill="#141414"/>
<path d="M130.916 37.816C128.708 37.816 126.98 37.192 125.732 35.944C124.516 34.664 123.908 32.856 123.908 30.52V1.38399L131.492 0.567993V30.232C131.492 31.288 131.924 31.816 132.788 31.816C133.236 31.816 133.652 31.736 134.036 31.576L135.524 36.952C134.148 37.528 132.612 37.816 130.916 37.816Z" fill="#141414"/>
<path d="M182.956 37H175.229L174.652 23.992C174.492 20.888 174.413 18.12 174.413 15.688C174.413 13.832 174.461 12.072 174.557 10.408L169.421 33.496H161.98L156.508 10.408C156.7 13.192 156.796 15.816 156.796 18.28C156.796 20.136 156.748 22.072 156.652 24.088L156.077 37H148.396L150.893 3.736H160.829L165.82 26.296L170.477 3.736H180.46L182.956 37Z" fill="#8C52FF"/>
<path d="M198.563 10.696C202.467 10.696 205.523 11.896 207.731 14.296C209.939 16.664 211.043 19.992 211.043 24.28C211.043 27 210.531 29.384 209.507 31.432C208.515 33.448 207.075 35.016 205.187 36.136C203.331 37.256 201.123 37.816 198.563 37.816C194.691 37.816 191.635 36.632 189.395 34.264C187.187 31.864 186.083 28.52 186.083 24.232C186.083 21.512 186.579 19.144 187.571 17.128C188.595 15.08 190.035 13.496 191.891 12.376C193.779 11.256 196.003 10.696 198.563 10.696ZM198.563 16.264C197.027 16.264 195.875 16.92 195.107 18.232C194.339 19.512 193.955 21.512 193.955 24.232C193.955 27.016 194.323 29.048 195.059 30.328C195.827 31.608 196.995 32.248 198.563 32.248C200.099 32.248 201.251 31.608 202.019 30.328C202.787 29.016 203.171 27 203.171 24.28C203.171 21.496 202.787 19.464 202.019 18.184C201.283 16.904 200.131 16.264 198.563 16.264Z" fill="#141414"/>
<path d="M231.538 35.8C230.61 36.44 229.522 36.936 228.274 37.288C227.058 37.64 225.842 37.816 224.626 37.816C219.058 37.784 216.274 34.712 216.274 28.6V16.792H212.674V11.512H216.274V5.99199L223.858 5.12799V11.512H229.714L228.898 16.792H223.858V28.504C223.858 29.688 224.05 30.536 224.434 31.048C224.818 31.56 225.426 31.816 226.258 31.816C227.122 31.816 228.034 31.544 228.994 31L231.538 35.8Z" fill="#141414"/>
<path d="M253.763 29.608C253.763 30.568 253.891 31.272 254.147 31.72C254.435 32.168 254.883 32.504 255.491 32.728L253.907 37.672C252.339 37.544 251.059 37.208 250.067 36.664C249.075 36.088 248.307 35.192 247.763 33.976C246.099 36.536 243.539 37.816 240.083 37.816C237.555 37.816 235.539 37.08 234.035 35.608C232.531 34.136 231.779 32.216 231.779 29.848C231.779 27.064 232.803 24.936 234.851 23.464C236.899 21.992 239.859 21.256 243.731 21.256H246.323V20.152C246.323 18.648 246.003 17.624 245.363 17.08C244.723 16.504 243.603 16.216 242.003 16.216C241.171 16.216 240.163 16.344 238.979 16.6C237.795 16.824 236.579 17.144 235.331 17.56L233.603 12.568C235.203 11.96 236.835 11.496 238.499 11.176C240.195 10.856 241.763 10.696 243.203 10.696C246.851 10.696 249.523 11.448 251.219 12.952C252.915 14.456 253.763 16.712 253.763 19.72V29.608ZM242.291 32.392C244.019 32.392 245.363 31.576 246.323 29.944V25.432H244.451C242.723 25.432 241.427 25.736 240.563 26.344C239.731 26.952 239.315 27.896 239.315 29.176C239.315 30.2 239.571 31 240.083 31.576C240.627 32.12 241.363 32.392 242.291 32.392Z" fill="#141414"/>
</svg>
